<svg xmlns="http://www.w3.org/2000/svg" width="771" height="210" fill="none"><g clip-path="url(#a)"><path fill="#000" d="M291.363 58.117c2.056 0 3.048.992 3.048 3.048v90.506c0 2.055-.992 3.048-3.048 3.048H276.48c-2.126 0-3.189-.993-3.189-3.048V61.165c0-2.056 1.063-3.048 3.189-3.048h14.883zm91.711 20.838c6.166 0 11.34.496 15.593 1.56 4.252 1.062 7.583 2.692 10.135 4.96 2.551 2.269 4.323 5.174 5.457 8.718 1.134 3.544 1.63 7.796 1.63 12.757v19.845c0 4.961-.567 9.214-1.63 12.757-1.134 3.544-2.906 6.45-5.457 8.718-2.552 2.268-5.954 3.898-10.135 4.89-4.253.993-9.427 1.489-15.593 1.489h-39.051c-6.237 0-11.482-.496-15.663-1.489-4.182-.992-7.584-2.622-10.065-4.89-2.551-2.268-4.323-5.174-5.457-8.718-1.063-3.543-1.63-7.796-1.63-12.757V106.95c0-4.961.567-9.213 1.63-12.757 1.134-3.544 2.906-6.45 5.457-8.718 2.552-2.267 5.883-3.898 10.065-4.96 4.181-1.064 9.426-1.56 15.663-1.56h39.051zm-52.234 44.438c0 2.977.213 5.387.709 7.3.496 1.914 1.276 3.473 2.41 4.607 1.134 1.134 2.693 1.984 4.606 2.481 1.914.496 4.395.779 7.3.779h35.225c3.047 0 5.528-.212 7.442-.779 1.913-.497 3.473-1.347 4.606-2.481 1.134-1.134 1.985-2.693 2.41-4.607.425-1.913.709-4.394.709-7.3v-13.112c0-2.835-.213-5.244-.709-7.158-.496-1.913-1.276-3.473-2.41-4.678-1.133-1.204-2.693-2.055-4.606-2.48-1.914-.425-4.395-.709-7.442-.709h-35.225c-2.976 0-5.386.213-7.3.709-1.913.496-3.472 1.276-4.606 2.48-1.134 1.205-1.985 2.765-2.41 4.678-.425 1.914-.709 4.323-.709 7.158v13.112zm206.811-65.276c2.126 0 3.189.992 3.189 3.048v13.537c0 2.126-1.063 3.19-3.189 3.19h-43.375v73.779c0 2.055-.992 3.048-3.048 3.048h-14.954c-2.055 0-3.048-.993-3.048-3.048v-73.85h-43.375c-2.126 0-3.189-1.064-3.189-3.19V61.165c0-2.056 1.063-3.048 3.189-3.048h107.8zm82.568 20.838c4.678 0 8.576.354 11.695 1.134 3.118.78 5.528 2.055 7.3 3.898 1.772 1.772 3.047 4.11 3.827 7.017.709 2.905 1.134 6.45 1.134 10.56v13.112c0 2.976-.638 4.961-1.914 6.166-1.275 1.134-3.26 1.701-5.953 1.701h-69.74v3.331c0 4.323 1.063 7.442 3.118 9.355 2.055 1.914 6.095 2.906 12.049 2.906h57.55c1.63 0 2.48.85 2.48 2.481v11.623c0 1.63-.85 2.481-2.48 2.481H579.75c-6.237 0-11.481-.497-15.663-1.489-4.181-.992-7.513-2.622-10.064-4.89-2.552-2.268-4.323-5.174-5.457-8.718-1.134-3.543-1.63-7.796-1.63-12.757v-19.845c0-4.961.567-9.213 1.63-12.757 1.134-3.544 2.905-6.45 5.457-8.718 2.551-2.268 5.883-3.898 10.064-4.96 4.182-1.064 9.426-1.56 15.663-1.56h40.469v-.07zm-53.722 31.326h55.919c1.56 0 2.339-.779 2.339-2.338v-5.812c0-2.835-.567-4.89-1.772-6.095-1.204-1.205-3.401-1.772-6.591-1.772h-34.657c-5.954 0-9.994.921-12.049 2.835-2.055 1.913-3.118 5.032-3.118 9.426v3.756h-.071zm200.361-52.163c1.276 0 1.984.425 2.126 1.346.142.85-.142 1.63-.779 2.268l-42.383 42.95 44.296 46.493c.638.638.922 1.418.78 2.268-.142.851-.851 1.347-2.126 1.347h-18.924c-1.134 0-1.984-.142-2.622-.425a4.351 4.351 0 0 1-1.772-1.489l-34.09-35.72-34.233 35.72c-.637.709-1.275 1.276-1.842 1.489-.567.283-1.489.425-2.694.425h-17.931c-1.205 0-1.842-.425-1.984-1.347-.142-.85.142-1.63.779-2.268l45.431-47.202-41.107-42.312c-.567-.637-.78-1.417-.709-2.267.071-.851.78-1.347 2.055-1.347h18.924c1.134 0 1.984.142 2.622.496.638.284 1.276.78 1.772 1.418l30.121 32.035 31.894-32.035c.567-.638 1.134-1.134 1.772-1.418.638-.354 1.488-.496 2.622-.496h18.002v.07z"/><mask id="b" width="45" height="51" x="134" y="0" maskUnits="userSpaceOnUse" style="mask-type:alpha"><path fill="#fff" d="M134.33 0v50.539l43.836-25.232L134.33 0z"/></mask><g mask="url(#b)"><path fill="url(#c)" d="M-3.377-11.779h238.879v235.433H-3.377z"/></g><mask id="d" width="44" height="51" x="178" y="25" maskUnits="userSpaceOnUse" style="mask-type:alpha"><path fill="#fff" d="M178.163 25.303V75.84L222 50.538l-43.837-25.235z" opacity=".9"/></mask><g mask="url(#d)"><path fill="url(#e)" d="M-3.378-11.779h238.879v235.433H-3.378z"/></g><mask id="f" width="45" height="52" x="134" y="50" maskUnits="userSpaceOnUse" style="mask-type:alpha"><path fill="#fff" d="M134.33 50.533v50.535l43.836-25.232-43.836-25.303z" opacity=".8"/></mask><g mask="url(#f)"><path fill="url(#g)" d="M-3.377-11.779h238.879v235.433H-3.377z"/></g><mask id="h" width="44" height="52" x="178" y="75" maskUnits="userSpaceOnUse" style="mask-type:alpha"><path fill="#fff" d="M178.163 75.84v50.535L222 101.072 178.163 75.84z" opacity=".8"/></mask><g mask="url(#h)"><path fill="url(#i)" d="M-3.378-11.777h238.879v235.433H-3.378z"/></g><mask id="j" width="45" height="51" x="134" y="101" maskUnits="userSpaceOnUse" style="mask-type:alpha"><path fill="#fff" d="M134.33 101.076v50.535l43.836-25.232-43.836-25.303z" opacity=".8"/></mask><g mask="url(#j)"><path fill="url(#k)" d="M-3.377-11.779h238.879v235.433H-3.377z"/></g><mask id="l" width="44" height="51" x="178" y="126" maskUnits="userSpaceOnUse" style="mask-type:alpha"><path fill="#fff" d="M178.163 126.371v50.535L222 151.603l-43.837-25.232z"/></mask><g mask="url(#l)"><path fill="url(#m)" d="M-3.378-11.777h238.879v235.433H-3.378z"/></g><mask id="n" width="44" height="52" x="21" y="48" maskUnits="userSpaceOnUse" style="mask-type:alpha"><path fill="#fff" d="M21.018 48.83v50.535l43.836-25.303L21.018 48.83z" opacity=".4"/></mask><g mask="url(#n)"><path fill="url(#o)" d="M-3.378-11.777h238.879v235.433H-3.378z"/></g><mask id="p" width="45" height="52" x="76" y="67" maskUnits="userSpaceOnUse" style="mask-type:alpha"><path fill="#fff" d="M76.335 67.62v50.534l43.762-25.232L76.335 67.62z" opacity=".2"/></mask><g mask="url(#p)"><path fill="url(#q)" d="M-3.379-11.777H235.5v235.433H-3.379z"/></g><mask id="r" width="45" height="52" x="43" y="99" maskUnits="userSpaceOnUse" style="mask-type:alpha"><path fill="#fff" d="M43.831 99.586v50.535l43.837-25.303-43.837-25.232z" opacity=".3"/></mask><g mask="url(#r)"><path fill="url(#s)" d="M-3.377-11.779h238.879v235.433H-3.377z"/></g><mask id="t" width="45" height="52" x="72" y="137" maskUnits="userSpaceOnUse" style="mask-type:alpha"><path fill="#fff" d="M72.724 137.717v50.535l43.762-25.303-43.762-25.232z" opacity=".9"/></mask><g mask="url(#t)"><path fill="url(#u)" d="M-3.378-11.779h238.879v235.433H-3.378z"/></g><mask id="v" width="45" height="51" x="133" y="159" maskUnits="userSpaceOnUse" style="mask-type:alpha"><path fill="#fff" d="M133.976 159.473V210l43.761-25.303-43.761-25.224z" opacity=".7"/></mask><g mask="url(#v)"><path fill="url(#w)" d="M-3.378-11.777h238.879v235.433H-3.378z"/></g><mask id="x" width="45" height="52" x="83" y="42" maskUnits="userSpaceOnUse" style="mask-type:alpha"><path fill="#fff" d="M83.626 42.67v50.535l43.761-25.232L83.626 42.67z" opacity=".9"/></mask><g mask="url(#x)"><path fill="url(#y)" d="M-3.38-11.779h238.879v235.433H-3.38z"/></g><mask id="z" width="45" height="51" x="90" y="0" maskUnits="userSpaceOnUse" style="mask-type:alpha"><path fill="#fff" d="M134.332 0v50.539L90.495 25.307 134.332 0z" opacity=".8"/></mask><g mask="url(#z)"><path fill="url(#A)" d="M-3.378-11.779h238.879v235.433H-3.378z"/></g><mask id="B" width="45" height="51" x="39" y="21" maskUnits="userSpaceOnUse" style="mask-type:alpha"><path fill="#fff" d="M83.635 21.473v50.523L39.798 46.705l43.837-25.232z" opacity=".6"/></mask><g mask="url(#B)"><path fill="url(#C)" d="M-3.379-11.779H235.5v235.433H-3.379z"/></g><mask id="D" width="45" height="52" x="83" y="46" maskUnits="userSpaceOnUse" style="mask-type:alpha"><path fill="#fff" d="M127.461 46.494V97.03L83.624 71.726l43.837-25.232z" opacity=".6"/></mask><g mask="url(#D)"><path fill="url(#E)" d="M-3.378-11.779h238.879v235.433H-3.378z"/></g><mask id="F" width="45" height="52" x="32" y="67" maskUnits="userSpaceOnUse" style="mask-type:alpha"><path fill="#fff" d="M76.127 67.62v50.534L32.29 92.922 76.127 67.62z" opacity=".95"/></mask><g mask="url(#F)"><path fill="url(#G)" d="M-3.378-11.777h238.879v235.433H-3.378z"/></g><mask id="H" width="45" height="51" x="90" y="101" maskUnits="userSpaceOnUse" style="mask-type:alpha"><path fill="#fff" d="M134.326 101.076v50.535l-43.761-25.232 43.761-25.303z" opacity=".6"/></mask><g mask="url(#H)"><path fill="url(#I)" d="M-3.378-11.779h238.879v235.433H-3.378z"/></g><mask id="J" width="44" height="52" x="0" y="112" maskUnits="userSpaceOnUse" style="mask-type:alpha"><path fill="#fff" d="M43.833 112.842v50.535L0 138.07l43.833-25.228z" opacity=".55"/></mask><g mask="url(#J)"><path fill="url(#K)" d="M-3.378-11.779h238.879v235.433H-3.378z"/></g><mask id="L" width="44" height="52" x="178" y="50" maskUnits="userSpaceOnUse" style="mask-type:alpha"><path fill="#fff" d="M221.994 50.533v50.535l-43.837-25.232 43.837-25.303z"/></mask><g mask="url(#L)"><path fill="url(#M)" d="M-3.378-11.779h238.879v235.433H-3.378z"/></g><mask id="N" width="45" height="52" x="134" y="75" maskUnits="userSpaceOnUse" style="mask-type:alpha"><path fill="#fff" d="M178.16 75.84v50.535l-43.837-25.303L178.16 75.84z" opacity=".95"/></mask><g mask="url(#N)"><path fill="url(#O)" d="M-3.378-11.777h238.879v235.433H-3.378z"/></g><mask id="P" width="44" height="51" x="178" y="101" maskUnits="userSpaceOnUse" style="mask-type:alpha"><path fill="#fff" d="M221.994 101.076v50.535l-43.837-25.232 43.837-25.303z" opacity=".9"/></mask><g mask="url(#P)"><path fill="url(#Q)" d="M-3.378-11.779h238.879v235.433H-3.378z"/></g><mask id="R" width="45" height="51" x="134" y="126" maskUnits="userSpaceOnUse" style="mask-type:alpha"><path fill="#fff" d="M178.16 126.371v50.535l-43.837-25.303 43.837-25.232z" opacity=".7"/></mask><g mask="url(#R)"><path fill="url(#S)" d="M-3.378-11.777h238.879v235.433H-3.378z"/></g><mask id="T" width="45" height="51" x="80" y="147" maskUnits="userSpaceOnUse" style="mask-type:alpha"><path fill="#fff" d="M124.629 147.43v50.535l-43.837-25.232 43.837-25.303z" opacity=".4"/></mask><g mask="url(#T)"><path fill="url(#U)" d="M-3.378-11.779h238.879v235.433H-3.378z"/></g><mask id="V" width="45" height="51" x="134" y="25" maskUnits="userSpaceOnUse" style="mask-type:alpha"><path fill="#fff" d="M178.16 25.305v50.539L134.323 50.54l43.837-25.235z"/></mask><g mask="url(#V)"><path fill="url(#W)" d="M-3.378-11.777h238.879v235.433H-3.378z"/></g></g><defs><linearGradient id="c" x1="27.781" x2="308.371" y1="122.975" y2="170.86" gradientUnits="userSpaceOnUse"><stop offset=".07" stop-color="#77FE9E"/><stop offset=".369" stop-color="#72A7FF"/><stop offset="1" stop-color="#EC02D5"/></linearGradient><linearGradient id="e" x1="27.78" x2="308.371" y1="122.975" y2="170.86" gradientUnits="userSpaceOnUse"><stop offset=".07" stop-color="#77FE9E"/><stop offset=".369" stop-color="#72A7FF"/><stop offset="1" stop-color="#EC02D5"/></linearGradient><linearGradient id="g" x1="27.781" x2="308.371" y1="122.975" y2="170.86" gradientUnits="userSpaceOnUse"><stop offset=".07" stop-color="#77FE9E"/><stop offset=".369" stop-color="#72A7FF"/><stop offset="1" stop-color="#EC02D5"/></linearGradient><linearGradient id="i" x1="27.78" x2="308.371" y1="122.977" y2="170.862" gradientUnits="userSpaceOnUse"><stop offset=".07" stop-color="#77FE9E"/><stop offset=".369" stop-color="#72A7FF"/><stop offset="1" stop-color="#EC02D5"/></linearGradient><linearGradient id="k" x1="27.781" x2="308.371" y1="122.975" y2="170.86" gradientUnits="userSpaceOnUse"><stop offset=".07" stop-color="#77FE9E"/><stop offset=".369" stop-color="#72A7FF"/><stop offset="1" stop-color="#EC02D5"/></linearGradient><linearGradient id="m" x1="27.78" x2="308.371" y1="122.977" y2="170.862" gradientUnits="userSpaceOnUse"><stop offset=".07" stop-color="#77FE9E"/><stop offset=".369" stop-color="#72A7FF"/><stop offset="1" stop-color="#EC02D5"/></linearGradient><linearGradient id="o" x1="27.78" x2="308.371" y1="122.977" y2="170.862" gradientUnits="userSpaceOnUse"><stop offset=".07" stop-color="#77FE9E"/><stop offset=".369" stop-color="#72A7FF"/><stop offset="1" stop-color="#EC02D5"/></linearGradient><linearGradient id="q" x1="27.779" x2="308.37" y1="122.977" y2="170.862" gradientUnits="userSpaceOnUse"><stop offset=".07" stop-color="#77FE9E"/><stop offset=".369" stop-color="#72A7FF"/><stop offset="1" stop-color="#EC02D5"/></linearGradient><linearGradient id="s" x1="27.781" x2="308.371" y1="122.975" y2="170.86" gradientUnits="userSpaceOnUse"><stop offset=".07" stop-color="#77FE9E"/><stop offset=".369" stop-color="#72A7FF"/><stop offset="1" stop-color="#EC02D5"/></linearGradient><linearGradient id="u" x1="27.78" x2="308.371" y1="122.975" y2="170.86" gradientUnits="userSpaceOnUse"><stop offset=".07" stop-color="#77FE9E"/><stop offset=".369" stop-color="#72A7FF"/><stop offset="1" stop-color="#EC02D5"/></linearGradient><linearGradient id="w" x1="27.78" x2="308.371" y1="122.977" y2="170.862" gradientUnits="userSpaceOnUse"><stop offset=".07" stop-color="#77FE9E"/><stop offset=".369" stop-color="#72A7FF"/><stop offset="1" stop-color="#EC02D5"/></linearGradient><linearGradient id="y" x1="27.778" x2="308.369" y1="122.975" y2="170.86" gradientUnits="userSpaceOnUse"><stop offset=".07" stop-color="#77FE9E"/><stop offset=".369" stop-color="#72A7FF"/><stop offset="1" stop-color="#EC02D5"/></linearGradient><linearGradient id="A" x1="27.78" x2="308.371" y1="122.975" y2="170.86" gradientUnits="userSpaceOnUse"><stop offset=".07" stop-color="#77FE9E"/><stop offset=".369" stop-color="#72A7FF"/><stop offset="1" stop-color="#EC02D5"/></linearGradient><linearGradient id="C" x1="27.779" x2="308.37" y1="122.975" y2="170.86" gradientUnits="userSpaceOnUse"><stop offset=".07" stop-color="#77FE9E"/><stop offset=".369" stop-color="#72A7FF"/><stop offset="1" stop-color="#EC02D5"/></linearGradient><linearGradient id="E" x1="27.78" x2="308.37" y1="122.975" y2="170.86" gradientUnits="userSpaceOnUse"><stop offset=".07" stop-color="#77FE9E"/><stop offset=".369" stop-color="#72A7FF"/><stop offset="1" stop-color="#EC02D5"/></linearGradient><linearGradient id="G" x1="27.78" x2="308.371" y1="122.977" y2="170.862" gradientUnits="userSpaceOnUse"><stop offset=".07" stop-color="#77FE9E"/><stop offset=".369" stop-color="#72A7FF"/><stop offset="1" stop-color="#EC02D5"/></linearGradient><linearGradient id="I" x1="27.78" x2="308.371" y1="122.975" y2="170.86" gradientUnits="userSpaceOnUse"><stop offset=".07" stop-color="#77FE9E"/><stop offset=".369" stop-color="#72A7FF"/><stop offset="1" stop-color="#EC02D5"/></linearGradient><linearGradient id="K" x1="27.78" x2="308.371" y1="122.975" y2="170.86" gradientUnits="userSpaceOnUse"><stop offset=".07" stop-color="#77FE9E"/><stop offset=".369" stop-color="#72A7FF"/><stop offset="1" stop-color="#EC02D5"/></linearGradient><linearGradient id="M" x1="27.78" x2="308.371" y1="122.975" y2="170.86" gradientUnits="userSpaceOnUse"><stop offset=".07" stop-color="#77FE9E"/><stop offset=".369" stop-color="#72A7FF"/><stop offset="1" stop-color="#EC02D5"/></linearGradient><linearGradient id="O" x1="27.78" x2="308.371" y1="122.977" y2="170.862" gradientUnits="userSpaceOnUse"><stop offset=".07" stop-color="#77FE9E"/><stop offset=".369" stop-color="#72A7FF"/><stop offset="1" stop-color="#EC02D5"/></linearGradient><linearGradient id="Q" x1="27.78" x2="308.371" y1="122.975" y2="170.86" gradientUnits="userSpaceOnUse"><stop offset=".07" stop-color="#77FE9E"/><stop offset=".369" stop-color="#72A7FF"/><stop offset="1" stop-color="#EC02D5"/></linearGradient><linearGradient id="S" x1="27.78" x2="308.371" y1="122.977" y2="170.862" gradientUnits="userSpaceOnUse"><stop offset=".07" stop-color="#77FE9E"/><stop offset=".369" stop-color="#72A7FF"/><stop offset="1" stop-color="#EC02D5"/></linearGradient><linearGradient id="U" x1="27.78" x2="308.37" y1="122.975" y2="170.86" gradientUnits="userSpaceOnUse"><stop offset=".07" stop-color="#77FE9E"/><stop offset=".369" stop-color="#72A7FF"/><stop offset="1" stop-color="#EC02D5"/></linearGradient><linearGradient id="W" x1="27.78" x2="308.371" y1="122.977" y2="170.862" gradientUnits="userSpaceOnUse"><stop offset=".07" stop-color="#77FE9E"/><stop offset=".369" stop-color="#72A7FF"/><stop offset="1" stop-color="#EC02D5"/></linearGradient><clipPath id="a"><path fill="#fff" d="M0 0h770.969v210H0z"/></clipPath></defs></svg>